<svg width="424" height="480" viewBox="0 0 424 480" fill="none" xmlns="http://www.w3.org/2000/svg">
<path fill-rule="evenodd" clip-rule="evenodd" d="M176.24 9.80407C198.287 -3.26801 225.714 -3.26803 247.761 9.80407L389.658 93.9389C410.947 106.562 424 129.472 424 154.217V325.783C424 350.528 410.947 373.439 389.658 386.062L247.761 470.196C225.714 483.268 198.287 483.268 176.24 470.196L34.3432 386.062C13.0539 373.439 0.000129963 350.528 0 325.783V154.217C0.000219136 129.472 13.054 106.562 34.3432 93.9389L176.24 9.80407ZM224.561 112.025C217.155 107.562 207.886 107.551 200.471 111.999L124.056 157.836C108.898 166.929 108.938 188.904 124.128 197.943L200.899 243.618C202.762 244.727 203.903 246.734 203.903 248.901V339.17C203.903 357.314 223.69 368.532 239.265 359.22L314.442 314.275C321.496 310.057 325.815 302.443 325.815 294.225V186.253C325.815 178.065 321.527 170.474 314.514 166.246L224.561 112.025Z" fill="#101A24"/>
</svg>
