<svg width="362" height="349" viewBox="0 0 362 349" fill="none" xmlns="http://www.w3.org/2000/svg">
<path d="M181.165 139.643V69.8213L241.346 35.0564L241.054 104.878L181.165 139.643Z" fill="#60FFD2"/>
<path d="M181.165 69.8213V139.643L120.4 104.878V35.0564L181.165 69.8213Z" fill="#36B5B4"/>
<path d="M120.4 35.0565L181.165 69.8214L241.347 35.0565L181.165 -0.000610352L120.4 35.0565Z" fill="#5FE4D2"/>
<path d="M240.818 244.172V174.35L300.999 139.585L300.707 209.407L240.818 244.172Z" fill="#71DEFF"/>
<path d="M240.818 174.35V244.172L180.052 209.407V139.585L240.818 174.35Z" fill="#3877C5"/>
<path d="M180.052 139.586L240.818 174.35L300.999 139.586L240.818 104.528L180.052 139.586Z" fill="#4EAADE"/>
<path d="M121.512 244.172V174.35L181.693 139.585L181.401 209.407L121.512 244.172Z" fill="#71DEFF"/>
<path d="M121.512 174.35V244.172L60.7466 209.407V139.585L121.512 174.35Z" fill="#3877C5"/>
<path d="M60.7466 139.586L121.512 174.35L181.694 139.586L121.512 104.528L60.7466 139.586Z" fill="#4EAADE"/>
<path d="M181.165 348.701V278.879L241.346 244.114L241.054 313.936L181.165 348.701Z" fill="#7D7FE5"/>
<path d="M181.165 278.879V348.701L120.4 313.936V244.114L181.165 278.879Z" fill="#2F31AE"/>
<path d="M120.4 244.114L181.165 278.879L241.347 244.114L181.165 209.057L120.4 244.114Z" fill="#6041D0"/>
<path d="M60.7651 348.701V278.879L120.946 244.114L120.654 313.936L60.7651 348.701Z" fill="#7D7FE5"/>
<path d="M60.7656 278.879V348.701L0 313.936V244.114L60.7656 278.879Z" fill="#2F31AE"/>
<path d="M0 244.114L60.7656 278.879L120.947 244.114L60.7656 209.057L0 244.114Z" fill="#6041D0"/>
<path d="M301.017 348.701V278.879L361.198 244.114L360.906 313.936L301.017 348.701Z" fill="#7D7FE5"/>
<path d="M301.018 278.879V348.701L240.252 313.936V244.114L301.018 278.879Z" fill="#2F31AE"/>
<path d="M240.252 244.114L301.018 278.879L361.199 244.114L301.018 209.057L240.252 244.114Z" fill="#6041D0"/>
</svg>
