<svg width="944" height="208" viewBox="0 0 944 208" fill="none" xmlns="http://www.w3.org/2000/svg">
<path d="M0.517578 128.877C0.517578 113.031 3.74102 99.213 10.1879 87.4213C16.6348 75.4453 25.5683 66.2331 36.9885 59.7845C48.4086 53.1516 61.4866 49.8352 76.2223 49.8352C95.1945 49.8352 110.851 54.6256 123.192 64.2063C135.718 73.6029 144.099 86.8686 148.335 104.003H106.615C104.404 97.3706 100.628 92.2117 95.2866 88.5268C90.1291 84.6576 83.6823 82.723 75.946 82.723C64.8942 82.723 56.1449 86.7764 49.698 94.8832C43.2511 102.806 40.0277 114.137 40.0277 128.877C40.0277 143.432 43.2511 154.763 49.698 162.87C56.1449 170.792 64.8942 174.754 75.946 174.754C91.6027 174.754 101.826 167.752 106.615 153.75H148.335C144.099 170.332 135.718 183.505 123.192 193.27C110.667 203.035 95.0103 207.918 76.2223 207.918C61.4866 207.918 48.4086 204.694 36.9885 198.245C25.5683 191.612 16.6348 182.4 10.1879 170.608C3.74102 158.632 0.517578 144.722 0.517578 128.877Z" fill="#383838"/>
<path d="M158.437 128.324C158.437 112.847 161.476 99.1209 167.555 87.1449C173.818 75.169 182.199 65.9567 192.698 59.5081C203.381 53.0595 215.262 49.8352 228.34 49.8352C239.76 49.8352 249.707 52.1383 258.18 56.7444C266.837 61.3505 273.744 67.1543 278.902 74.1556V52.3225H317.859V205.431H278.902V183.045C273.928 190.23 267.021 196.218 258.18 201.009C249.522 205.615 239.484 207.918 228.063 207.918C215.17 207.918 203.381 204.602 192.698 197.969C182.199 191.336 173.818 182.031 167.555 170.055C161.476 157.895 158.437 143.985 158.437 128.324ZM278.902 128.877C278.902 119.48 277.06 111.465 273.376 104.833C269.692 98.0154 264.719 92.8565 258.456 89.3559C252.193 85.671 245.47 83.8285 238.286 83.8285C231.103 83.8285 224.472 85.5788 218.393 89.0795C212.315 92.5802 207.341 97.7391 203.473 104.556C199.789 111.189 197.947 119.112 197.947 128.324C197.947 137.536 199.789 145.643 203.473 152.644C207.341 159.461 212.315 164.712 218.393 168.397C224.656 172.082 231.287 173.925 238.286 173.925C245.47 173.925 252.193 172.174 258.456 168.674C264.719 164.989 269.692 159.83 273.376 153.197C277.06 146.38 278.902 138.273 278.902 128.877Z" fill="#383838"/>
<path d="M386.031 76.0902C391.004 67.9834 397.451 61.6269 405.371 57.0208C413.476 52.4146 422.686 50.1116 433.001 50.1116V90.7377H422.778C410.621 90.7377 401.411 93.5935 395.148 99.3051C389.07 105.017 386.031 114.966 386.031 129.153V205.431H347.349V52.3225H386.031V76.0902Z" fill="#383838"/>
<path d="M489.447 74.7083C494.42 67.3385 501.235 61.3505 509.893 56.7444C518.734 52.1383 528.773 49.8352 540.009 49.8352C553.087 49.8352 564.875 53.0595 575.374 59.5081C586.058 65.9567 594.439 75.169 600.517 87.1449C606.78 98.9367 609.911 112.663 609.911 128.324C609.911 143.985 606.78 157.895 600.517 170.055C594.439 182.031 586.058 191.336 575.374 197.969C564.875 204.602 553.087 207.918 540.009 207.918C528.589 207.918 518.55 205.707 509.893 201.285C501.42 196.679 494.604 190.783 489.447 183.598V205.431H450.766V0.917969H489.447V74.7083ZM570.401 128.324C570.401 119.112 568.467 111.189 564.599 104.556C560.915 97.7391 555.942 92.5802 549.679 89.0795C543.601 85.5788 536.969 83.8285 529.786 83.8285C522.786 83.8285 516.155 85.671 509.893 89.3559C503.814 92.8565 498.841 98.0154 494.973 104.833C491.289 111.65 489.447 119.664 489.447 128.877C489.447 138.089 491.289 146.104 494.973 152.921C498.841 159.738 503.814 164.989 509.893 168.674C516.155 172.174 522.786 173.925 529.786 173.925C536.969 173.925 543.601 172.082 549.679 168.397C555.942 164.712 560.915 159.461 564.599 152.644C568.467 145.827 570.401 137.72 570.401 128.324Z" fill="#383838"/>
<path d="M697.7 207.918C682.964 207.918 669.702 204.694 657.913 198.245C646.125 191.612 636.823 182.308 630.007 170.332C623.376 158.356 620.061 144.537 620.061 128.877C620.061 113.216 623.468 99.3973 630.284 87.4213C637.283 75.4453 646.769 66.2331 658.742 59.7845C670.715 53.1516 684.069 49.8352 698.805 49.8352C713.54 49.8352 726.895 53.1516 738.867 59.7845C750.84 66.2331 760.234 75.4453 767.049 87.4213C774.049 99.3973 777.549 113.216 777.549 128.877C777.549 144.537 773.957 158.356 766.773 170.332C759.774 182.308 750.196 191.612 738.039 198.245C726.066 204.694 712.619 207.918 697.7 207.918ZM697.7 174.201C704.699 174.201 711.238 172.543 717.316 169.226C723.579 165.726 728.552 160.567 732.236 153.75C735.92 146.933 737.762 138.642 737.762 128.877C737.762 114.321 733.894 103.174 726.158 95.436C718.606 87.5134 709.304 83.5521 698.252 83.5521C687.2 83.5521 677.898 87.5134 670.346 95.436C662.979 103.174 659.295 114.321 659.295 128.877C659.295 143.432 662.886 154.671 670.07 162.594C677.438 170.332 686.648 174.201 697.7 174.201Z" fill="#383838"/>
<path d="M882.456 50.1116C900.692 50.1116 915.428 55.9153 926.664 67.5228C937.9 78.946 943.518 94.9754 943.518 115.611V205.431H904.836V120.862C904.836 108.702 901.797 99.3973 895.719 92.9487C889.64 86.3158 881.351 82.9994 870.852 82.9994C860.169 82.9994 851.696 86.3158 845.433 92.9487C839.355 99.3973 836.315 108.702 836.315 120.862V205.431H797.634V52.3225H836.315V71.3919C841.473 64.7591 848.012 59.6002 855.932 55.9153C864.037 52.0461 872.878 50.1116 882.456 50.1116Z" fill="#383838"/>
</svg>
